<mxfile host="app.diagrams.net" modified="2022-06-10T22:53:53.290Z" agent="5.0 (Windows NT 10.0; Win64; x64) AppleWebKit/537.36 (KHTML, like Gecko) Chrome/102.0.0.0 Safari/537.36" etag="Ke3qKGo5NtzgN0-UmRV2" version="19.0.3" type="github">
  <diagram id="5xhOuzboBe02sEAnYH5h" name="Page-1">
    <mxGraphModel dx="1422" dy="754" grid="1" gridSize="10" guides="1" tooltips="1" connect="1" arrows="1" fold="1" page="1" pageScale="1" pageWidth="827" pageHeight="1169" math="0" shadow="0">
      <root>
        <mxCell id="0" />
        <mxCell id="1" parent="0" />
        <mxCell id="38E8loxunfmY1wO9vUvv-7" style="edgeStyle=orthogonalEdgeStyle;rounded=0;orthogonalLoop=1;jettySize=auto;html=1;exitX=0.25;exitY=1;exitDx=0;exitDy=0;" edge="1" parent="1" source="38E8loxunfmY1wO9vUvv-1" target="38E8loxunfmY1wO9vUvv-3">
          <mxGeometry relative="1" as="geometry" />
        </mxCell>
        <mxCell id="38E8loxunfmY1wO9vUvv-8" style="edgeStyle=orthogonalEdgeStyle;rounded=0;orthogonalLoop=1;jettySize=auto;html=1;exitX=0.75;exitY=1;exitDx=0;exitDy=0;" edge="1" parent="1" source="38E8loxunfmY1wO9vUvv-1" target="38E8loxunfmY1wO9vUvv-4">
          <mxGeometry relative="1" as="geometry" />
        </mxCell>
        <mxCell id="38E8loxunfmY1wO9vUvv-1" value="/" style="rounded=0;whiteSpace=wrap;html=1;" vertex="1" parent="1">
          <mxGeometry x="294" y="160" width="120" height="50" as="geometry" />
        </mxCell>
        <mxCell id="38E8loxunfmY1wO9vUvv-3" value="/login" style="rounded=0;whiteSpace=wrap;html=1;" vertex="1" parent="1">
          <mxGeometry x="100" y="290" width="120" height="60" as="geometry" />
        </mxCell>
        <mxCell id="38E8loxunfmY1wO9vUvv-4" value="/register" style="rounded=0;whiteSpace=wrap;html=1;" vertex="1" parent="1">
          <mxGeometry x="414" y="290" width="120" height="60" as="geometry" />
        </mxCell>
      </root>
    </mxGraphModel>
  </diagram>
</mxfile>
